<svg width="56" height="56" viewBox="0 0 56 56" fill="none" xmlns="http://www.w3.org/2000/svg">
<path d="M40.8734 29.2961C40.8516 25.5664 42.5414 22.7555 45.9539 20.6828C44.0453 17.9484 41.1578 16.4445 37.3516 16.1547C33.7477 15.8703 29.8047 18.2547 28.3609 18.2547C26.8352 18.2547 23.3461 16.2531 20.6008 16.2531C14.9352 16.3406 8.91406 20.7703 8.91406 29.7828C8.91406 32.4461 9.40078 35.1969 10.3742 38.0297C11.6758 41.7594 16.368 50.8977 21.2625 50.75C23.8219 50.6898 25.632 48.9344 28.9625 48.9344C32.1945 48.9344 33.868 50.75 36.7227 50.75C41.6609 50.6789 45.9047 42.3719 47.1406 38.6313C40.518 35.5086 40.8734 29.4875 40.8734 29.2961V29.2961ZM35.1258 12.6164C37.8984 9.32422 37.6469 6.32734 37.5648 5.25C35.1148 5.39219 32.282 6.91797 30.6687 8.79375C28.8914 10.8063 27.8469 13.2945 28.0711 16.1C30.718 16.3023 33.1352 14.9406 35.1258 12.6164V12.6164Z" fill="black"/>
</svg>
