<svg width="24" height="24" viewBox="0 0 24 24" fill="none" xmlns="http://www.w3.org/2000/svg">
<path d="M3 11.7973C3 7.49845 5.11765 4.5 12 4.5C18.8823 4.5 21 7.49845 21 11.7973C21 16.5 16 22.5 12 22.5C8 22.5 3 16.5 3 11.7973Z" stroke="white" stroke-width="3" stroke-linecap="round" stroke-linejoin="round"/>
<path d="M5.56845 6.01845C4.84697 4.95594 4.34278 3.72156 4.05214 2.8938C3.8704 2.37619 4.18062 1.83924 4.72034 1.741C6.11125 1.48783 8.6912 1.20855 10.3355 2.18721C11.0768 2.62843 11.6246 3.11965 12.0001 3.63336C12.3756 3.11965 12.9234 2.62843 13.6647 2.18721C15.309 1.20855 17.8889 1.48783 19.2799 1.741C19.8196 1.83924 20.1298 2.37619 19.9481 2.8938C19.6574 3.72159 19.1532 4.95603 18.4317 6.01855" stroke="white" stroke-width="3" stroke-linecap="round" stroke-linejoin="round"/>
<path d="M9.5 9V8" stroke="white" stroke-width="3" stroke-linecap="round" stroke-linejoin="round"/>
<path d="M10 18V17" stroke="white" stroke-width="3" stroke-linecap="round" stroke-linejoin="round"/>
<path d="M7 13.5V12.5" stroke="white" stroke-width="3" stroke-linecap="round" stroke-linejoin="round"/>
<path d="M14.5 9V8" stroke="white" stroke-width="3" stroke-linecap="round" stroke-linejoin="round"/>
<path d="M14 18V17" stroke="white" stroke-width="3" stroke-linecap="round" stroke-linejoin="round"/>
<path d="M17 13.5V12.5" stroke="white" stroke-width="3" stroke-linecap="round" stroke-linejoin="round"/>
<path d="M12 13.5V12.5" stroke="white" stroke-width="3" stroke-linecap="round" stroke-linejoin="round"/>
</svg>
