<svg width="17" height="18" viewBox="0 0 17 18" fill="none" xmlns="http://www.w3.org/2000/svg">
<path d="M2.78772 11.0674C3.00697 9.6423 3.11659 8.92974 3.40363 8.36199C3.88344 7.41295 4.72141 6.69404 5.73238 6.36412C6.33716 6.16675 7.05811 6.16675 8.5 6.16675C9.94189 6.16675 10.6628 6.16675 11.2676 6.36412C12.2786 6.69404 13.1166 7.41295 13.5964 8.36199C13.8834 8.92974 13.993 9.6423 14.2123 11.0674L14.5205 13.071C14.6853 14.1419 14.7677 14.6773 14.4684 15.0262C14.1691 15.3751 13.6273 15.3751 12.5438 15.3751H4.45622C3.37271 15.3751 2.83095 15.3751 2.53165 15.0262C2.23234 14.6773 2.31472 14.1419 2.47948 13.071L2.78772 11.0674Z" fill="black"/>
<path d="M6.02083 8.29175L6.02083 5.81258C6.02083 4.44338 7.13079 3.33341 8.49999 3.33341V3.33341C9.8692 3.33341 10.9792 4.44337 10.9792 5.81258L10.9792 8.29175" stroke="black" stroke-linecap="round"/>
</svg>
