<svg width="19" height="19" viewBox="0 0 19 19" fill="none" xmlns="http://www.w3.org/2000/svg">
<g id="Basic / Copy">
<path id="Vector" d="M4.56731 11.875H3.83654C3.44891 11.875 3.07717 11.721 2.80307 11.4469C2.52898 11.1728 2.375 10.8011 2.375 10.4135V3.83654C2.375 3.44891 2.52898 3.07717 2.80307 2.80307C3.07717 2.52898 3.44891 2.375 3.83654 2.375H10.4135C10.8011 2.375 11.1728 2.52898 11.4469 2.80307C11.721 3.07717 11.875 3.44891 11.875 3.83654V4.56731" stroke="white" stroke-width="2" stroke-linecap="round" stroke-linejoin="round"/>
<path id="Vector_2" d="M7.125 8.70833C7.125 7.83388 7.83388 7.125 8.70833 7.125H15.0417C15.9161 7.125 16.625 7.83388 16.625 8.70833V15.0417C16.625 15.9161 15.9161 16.625 15.0417 16.625H8.70833C7.83388 16.625 7.125 15.9161 7.125 15.0417V8.70833Z" stroke="white" stroke-width="2" stroke-linecap="round" stroke-linejoin="round"/>
</g>
</svg>
