<svg width="19" height="19" viewBox="0 0 19 19" fill="none" xmlns="http://www.w3.org/2000/svg">
<g id="Basic / Edit_Line">
<path id="Vector" d="M9.5 15.8333H15.8333" stroke="white" stroke-width="2" stroke-linecap="round" stroke-linejoin="round"/>
<path id="Vector_2" d="M12.749 3.69596C12.9167 3.52818 13.1159 3.39509 13.3351 3.30429C13.5543 3.21348 13.7893 3.16675 14.0266 3.16675C14.2639 3.16675 14.4988 3.21348 14.718 3.30429C14.9372 3.39509 15.1364 3.52818 15.3042 3.69596C15.472 3.86374 15.6051 4.06292 15.6959 4.28214C15.7867 4.50135 15.8334 4.73631 15.8334 4.97359C15.8334 5.21086 15.7867 5.44582 15.6959 5.66503C15.6051 5.88425 15.472 6.08343 15.3042 6.25121L6.68022 14.8752L3.16675 15.8334L4.12497 12.3199L12.749 3.69596Z" stroke="white" stroke-width="2" stroke-linecap="round" stroke-linejoin="round"/>
</g>
</svg>
