<svg width="17" height="17" viewBox="0 0 17 17" fill="none" xmlns="http://www.w3.org/2000/svg">
<path d="M2.78772 10.5673C3.00697 9.14222 3.11659 8.42966 3.40363 7.86192C3.88344 6.91288 4.72141 6.19396 5.73238 5.86404C6.33716 5.66667 7.05811 5.66667 8.5 5.66667V5.66667C9.94189 5.66667 10.6628 5.66667 11.2676 5.86404C12.2786 6.19396 13.1166 6.91288 13.5964 7.86192C13.8834 8.42966 13.993 9.14222 14.2123 10.5673L14.5205 12.5709C14.6853 13.6418 14.7677 14.1773 14.4684 14.5261C14.1691 14.875 13.6273 14.875 12.5438 14.875H4.45622C3.37271 14.875 2.83095 14.875 2.53165 14.5261C2.23234 14.1773 2.31472 13.6418 2.47948 12.5709L2.78772 10.5673Z" fill="white"/>
<path d="M6.02087 7.79167L6.02087 5.3125C6.02087 3.9433 7.13083 2.83334 8.50004 2.83334V2.83334C9.86925 2.83334 10.9792 3.9433 10.9792 5.3125L10.9792 7.79167" stroke="white" stroke-linecap="round"/>
</svg>
