<svg width="20" height="16" viewBox="0 0 20 16" fill="none" xmlns="http://www.w3.org/2000/svg">
<path d="M18.3334 5.90834H14.3417L10.6917 0.441675C10.5334 0.208342 10.2667 0.0916748 10 0.0916748C9.73337 0.0916748 9.46671 0.208342 9.30837 0.450008L5.65837 5.90834H1.66671C1.20837 5.90834 0.833374 6.28334 0.833374 6.74167C0.833374 6.81667 0.841707 6.89167 0.866707 6.96667L2.98337 14.6917C3.17504 15.3917 3.81671 15.9083 4.58337 15.9083H15.4167C16.1834 15.9083 16.825 15.3917 17.025 14.6917L19.1417 6.96667L19.1667 6.74167C19.1667 6.28334 18.7917 5.90834 18.3334 5.90834ZM10 2.40834L12.3334 5.90834H7.66671L10 2.40834ZM15.4167 14.2417L4.59171 14.25L2.75837 7.57501H17.25L15.4167 14.2417ZM10 9.24167C9.08337 9.24167 8.33337 9.99167 8.33337 10.9083C8.33337 11.825 9.08337 12.575 10 12.575C10.9167 12.575 11.6667 11.825 11.6667 10.9083C11.6667 9.99167 10.9167 9.24167 10 9.24167Z" fill="#8B96A5"/>
</svg>
