<svg width="26" height="26" viewBox="0 0 26 26" fill="none" xmlns="http://www.w3.org/2000/svg">
<path d="M15.4502 17.3312H10.0335" stroke="white" stroke-width="1.5" stroke-miterlimit="10" stroke-linecap="round" stroke-linejoin="round"/>
<path d="M13.715 2.72794L13.6825 2.80377L10.5408 10.0946H7.45332C6.71665 10.0946 6.01249 10.2463 5.37332 10.5171L7.26915 5.98877L7.31249 5.88044L7.38832 5.70711C7.40999 5.64211 7.43166 5.57711 7.46416 5.52294C8.88332 2.24044 10.4867 1.49294 13.715 2.72794Z" stroke="white" stroke-width="1.5" stroke-linecap="round" stroke-linejoin="round"/>
<path d="M19.5542 10.3114C19.0667 10.1597 18.5467 10.0947 18.0267 10.0947H10.5408L13.6825 2.80386L13.715 2.72803C13.8775 2.78219 14.0292 2.85803 14.1917 2.92303L16.5858 3.93053C17.9183 4.48303 18.85 5.05719 19.4133 5.75053C19.5217 5.88053 19.6083 5.99969 19.6842 6.14053C19.7817 6.29219 19.8575 6.44386 19.9008 6.60636C19.9442 6.70386 19.9767 6.80136 19.9983 6.88803C20.2908 7.79803 20.1175 8.91386 19.5542 10.3114Z" stroke="white" stroke-width="1.5" stroke-linecap="round" stroke-linejoin="round"/>
<path d="M23.3152 15.3815V17.494C23.3152 17.7107 23.3044 17.9273 23.2935 18.144C23.0877 21.9248 20.9752 23.8315 16.9669 23.8315H8.51685C8.25685 23.8315 7.99685 23.8098 7.74769 23.7773C4.30269 23.5498 2.46102 21.7082 2.23352 18.2632C2.20102 18.014 2.17935 17.754 2.17935 17.494V15.3815C2.17935 13.204 3.50102 11.3298 5.38602 10.5173C6.03602 10.2465 6.72935 10.0948 7.46602 10.0948H18.0394C18.5702 10.0948 19.0902 10.1707 19.5669 10.3115C21.7227 10.9723 23.3152 12.9873 23.3152 15.3815Z" stroke="white" stroke-width="1.5" stroke-linecap="round" stroke-linejoin="round"/>
<path d="M7.26916 5.98877L5.37332 10.5171C3.48832 11.3296 2.16666 13.2038 2.16666 15.3813V12.2071C2.16666 9.13044 4.35499 6.56294 7.26916 5.98877Z" stroke="white" stroke-width="1.5" stroke-linecap="round" stroke-linejoin="round"/>
<path d="M23.3118 12.2067V15.3808C23.3118 12.9975 21.7301 10.9717 19.5635 10.3217C20.1268 8.91333 20.2893 7.80834 20.0185 6.8875C19.9968 6.79 19.9643 6.6925 19.921 6.60583C21.936 7.64583 23.3118 9.78 23.3118 12.2067Z" stroke="white" stroke-width="1.5" stroke-linecap="round" stroke-linejoin="round"/>
</svg>
